<svg width="21" height="22" viewBox="0 0 21 22" fill="none" xmlns="http://www.w3.org/2000/svg">
<path fill-rule="evenodd" clip-rule="evenodd" d="M5.92612 0.977172C7.00137 0.927672 7.3442 0.916672 10.0832 0.916672C12.8222 0.916672 13.165 0.928588 14.2394 0.977172C15.3137 1.02575 16.047 1.19717 16.6887 1.44559C17.3606 1.6995 17.9702 2.09642 18.4743 2.60975C18.9877 3.113 19.3837 3.72167 19.6367 4.3945C19.886 5.03617 20.0565 5.7695 20.106 6.842C20.1555 7.91908 20.1665 8.26191 20.1665 11C20.1665 13.739 20.1546 14.0818 20.106 15.1571C20.0574 16.2296 19.886 16.9629 19.6367 17.6046C19.3837 18.2775 18.987 18.8872 18.4743 19.3911C17.9702 19.9045 17.3606 20.3005 16.6887 20.5535C16.047 20.8028 15.3137 20.9733 14.2412 21.0228C13.165 21.0723 12.8222 21.0833 10.0832 21.0833C7.3442 21.0833 7.00137 21.0714 5.92612 21.0228C4.85362 20.9742 4.12029 20.8028 3.47862 20.5535C2.80572 20.3004 2.19604 19.9038 1.69204 19.3911C1.17906 18.8876 0.782082 18.2782 0.528794 17.6055C0.280377 16.9638 0.109878 16.2305 0.0603778 15.158C0.0108779 14.0809 -0.00012207 13.7381 -0.00012207 11C-0.00012207 8.26099 0.0117946 7.91816 0.0603778 6.84383C0.108961 5.7695 0.280377 5.03617 0.528794 4.3945C0.782456 3.72174 1.17973 3.11237 1.69296 2.60884C2.19624 2.09596 2.80531 1.69899 3.47771 1.44559C4.11937 1.19717 4.8527 1.02667 5.9252 0.977172H5.92612ZM14.1578 2.79217C13.0944 2.74359 12.7754 2.7335 10.0832 2.7335C7.39095 2.7335 7.07195 2.74359 6.00862 2.79217C5.02504 2.83709 4.49154 3.00117 4.13587 3.13958C3.66562 3.32292 3.32921 3.54017 2.97629 3.89308C2.64175 4.21855 2.38429 4.61476 2.22279 5.05266C2.08437 5.40833 1.92029 5.94183 1.87537 6.92541C1.82679 7.98874 1.81671 8.30774 1.81671 11C1.81671 13.6922 1.82679 14.0112 1.87537 15.0746C1.92029 16.0581 2.08437 16.5916 2.22279 16.9473C2.38412 17.3846 2.64171 17.7815 2.97629 18.1069C3.30171 18.4415 3.69862 18.6991 4.13587 18.8604C4.49154 18.9988 5.02504 19.1629 6.00862 19.2078C7.07195 19.2564 7.39003 19.2665 10.0832 19.2665C12.7764 19.2665 13.0944 19.2564 14.1578 19.2078C15.1414 19.1629 15.6749 18.9988 16.0305 18.8604C16.5008 18.6771 16.8372 18.4598 17.1901 18.1069C17.5247 17.7815 17.7823 17.3846 17.9436 16.9473C18.082 16.5916 18.2461 16.0581 18.291 15.0746C18.3396 14.0112 18.3497 13.6922 18.3497 11C18.3497 8.30774 18.3396 7.98874 18.291 6.92541C18.2461 5.94183 18.082 5.40833 17.9436 5.05266C17.7603 4.58242 17.543 4.246 17.1901 3.89308C16.8646 3.55857 16.4684 3.30111 16.0305 3.13958C15.6749 3.00117 15.1414 2.83709 14.1578 2.79217ZM8.79528 14.1084C9.51455 14.4078 10.3155 14.4482 11.0612 14.2227C11.807 13.9972 12.4513 13.5198 12.8842 12.872C13.317 12.2243 13.5116 11.4463 13.4346 10.671C13.3576 9.89572 13.0138 9.17122 12.4619 8.62124C12.1102 8.26968 11.6848 8.00049 11.2165 7.83305C10.7482 7.6656 10.2486 7.60407 9.75365 7.65289C9.25871 7.70171 8.78075 7.85966 8.35418 8.11536C7.92762 8.37107 7.56305 8.71817 7.28673 9.13169C7.01041 9.5452 6.82921 10.0148 6.75617 10.5068C6.68314 10.9987 6.72009 11.5008 6.86436 11.9767C7.00863 12.4527 7.25664 12.8907 7.59053 13.2593C7.92441 13.6279 8.33587 13.9179 8.79528 14.1084ZM6.41837 7.33516C6.89964 6.85389 7.47099 6.47212 8.0998 6.21166C8.72862 5.9512 9.40257 5.81714 10.0832 5.81714C10.7638 5.81714 11.4378 5.9512 12.0666 6.21166C12.6954 6.47212 13.2667 6.85389 13.748 7.33516C14.2293 7.81643 14.6111 8.38779 14.8715 9.0166C15.132 9.64541 15.266 10.3194 15.266 11C15.266 11.6806 15.132 12.3546 14.8715 12.9834C14.6111 13.6122 14.2293 14.1835 13.748 14.6648C12.776 15.6368 11.4578 16.1828 10.0832 16.1828C8.70862 16.1828 7.39034 15.6368 6.41837 14.6648C5.44639 13.6928 4.90035 12.3746 4.90035 11C4.90035 9.62541 5.44639 8.30713 6.41837 7.33516ZM16.4155 6.589C16.5348 6.47649 16.6303 6.3412 16.6963 6.19114C16.7623 6.04107 16.7976 5.87928 16.8 5.71535C16.8024 5.55141 16.7718 5.38867 16.7102 5.23674C16.6486 5.08481 16.5571 4.9468 16.4411 4.83087C16.3252 4.71494 16.1872 4.62344 16.0353 4.56181C15.8834 4.50017 15.7206 4.46964 15.5567 4.47203C15.3927 4.47442 15.2309 4.50968 15.0809 4.57572C14.9308 4.64176 14.7955 4.73724 14.683 4.8565C14.4642 5.08844 14.3444 5.39653 14.3491 5.71535C14.3537 6.03417 14.4824 6.33863 14.7079 6.5641C14.9334 6.78957 15.2378 6.91829 15.5567 6.92294C15.8755 6.92758 16.1836 6.80779 16.4155 6.589Z" fill="#CCCCCC"/>
</svg>
