<svg width="25" height="18" viewBox="0 0 20 13" fill="none" xmlns="http://www.w3.org/2000/svg">
<path d="M0.5 0.722222C0.5 0.32335 0.82335 0 1.22222 0H19.2778C19.6767 0 20 0.32335 20 0.722222C20 1.12109 19.6767 1.44444 19.2778 1.44444H10.25H1.22222C0.82335 1.44444 0.5 1.12109 0.5 0.722222Z" fill="#AD81CB"/>
<path d="M0.5 6.50002C0.5 6.10115 0.82335 5.7778 1.22222 5.7778H17.1111C17.51 5.7778 17.8333 6.10115 17.8333 6.50002C17.8333 6.8989 17.51 7.22225 17.1111 7.22225H9.16667H1.22222C0.82335 7.22225 0.5 6.8989 0.5 6.50002Z" fill="#AD81CB"/>
<path d="M0.5 12.2778C0.5 11.8789 0.82335 11.5555 1.22222 11.5555H12.7778C13.1767 11.5555 13.5 11.8789 13.5 12.2778C13.5 12.6766 13.1767 13 12.7778 13H7H1.22222C0.82335 13 0.5 12.6766 0.5 12.2778Z" fill="#AD81CB"/>
</svg>
