<svg width="22" height="22" viewBox="0 0 22 22" fill="none" xmlns="http://www.w3.org/2000/svg">
<path fill-rule="evenodd" clip-rule="evenodd" d="M15.9637 13.1835C15.6906 13.0469 14.3513 12.3887 14.102 12.2971C13.8526 12.2063 13.6711 12.1614 13.4887 12.4346C13.3072 12.7059 12.7856 13.3201 12.6271 13.5016C12.4676 13.684 12.309 13.706 12.0367 13.5703C11.7645 13.4328 10.8863 13.1459 9.8459 12.2182C9.03648 11.4959 8.48924 10.604 8.33065 10.3308C8.17207 10.0586 8.31324 9.91097 8.44982 9.77531C8.57265 9.65339 8.72207 9.45723 8.85865 9.29864C8.99523 9.13914 9.04015 9.02548 9.1309 8.84306C9.22257 8.66156 9.17673 8.50298 9.10798 8.36639C9.04015 8.22981 8.49565 6.88873 8.26832 6.34331C8.0474 5.81257 7.82282 5.88498 7.65599 5.87582C7.49649 5.86848 7.31499 5.86665 7.13349 5.86665C6.95199 5.86665 6.65682 5.93448 6.40749 6.20765C6.15724 6.4799 5.45416 7.13898 5.45416 8.48006C5.45416 9.82023 6.42949 11.1155 6.56607 11.2979C6.70266 11.4794 8.48649 14.2312 11.2191 15.411C11.8699 15.6915 12.3768 15.8592 12.7719 15.9839C13.4246 16.192 14.0186 16.1626 14.4879 16.092C15.0104 16.0141 16.0994 15.433 16.3267 14.7968C16.5531 14.1606 16.5531 13.6152 16.4853 13.5016C16.4175 13.3879 16.236 13.3201 15.9628 13.1835H15.9637ZM10.9936 19.9695H10.9899C9.36688 19.9698 7.77366 19.5335 6.37724 18.7064L6.04724 18.5102L2.61708 19.4104L3.53283 16.0664L3.31741 15.7235C2.41004 14.2792 1.92985 12.6076 1.93233 10.9019C1.93416 5.90606 5.99866 1.84157 10.9972 1.84157C13.4172 1.84157 15.6924 2.78574 17.4029 4.49807C18.2466 5.33826 18.9153 6.33742 19.3703 7.43772C19.8253 8.53802 20.0577 9.71763 20.0539 10.9083C20.0521 15.9041 15.9876 19.9695 10.9936 19.9695ZM18.7046 3.19732C17.6946 2.18067 16.4929 1.37457 15.1691 0.825724C13.8453 0.276883 12.4257 -0.00378233 10.9926 -8.21368e-06C4.98482 -8.21368e-06 0.0934998 4.8904 0.0916665 10.901C0.0907499 12.8223 0.592166 14.6978 1.54641 16.3505L0 22L5.77866 20.4838C7.37721 21.3547 9.16857 21.8111 10.989 21.8111H10.9936C17.0014 21.8111 21.8927 16.9207 21.8945 10.9092C21.899 9.47673 21.6193 8.05757 21.0718 6.73384C20.5242 5.41012 19.7196 4.2081 18.7046 3.19732Z" fill="#CCCCCC"/>
</svg>
